#!OML:ASF F:\VICON\USERDATA\INSTALL\Justin_Nancy\Justin_Nancy.ASF
:FULLY-SPECIFIED
:DEGREES
237
root 0.305391 17.2248 23.4717 -0.433536 1.54496 0.194454
lowerback 4.03068 0.306775 -0.611731
upperback -0.118979 0.426401 1.90435
thorax -2.40152 0.231598 2.276
lowerneck -16.8446 -4.22322 -11.0831
upperneck 18.4006 -4.53053 7.42459
head 8.97494 -2.13062 3.79765
rclavicle -9.31803e-016 9.54166e-015
rhumerus -35.1874 -26.3018 -71.0232
rradius 25.6514
rwrist 12.0711
rhand -15.0177 10.0285
rfingers 7.12502
rthumb 11.1477 -19.6554
lclavicle -9.31803e-016 9.54166e-015
lhumerus -31.8704 4.91602 85.2012
lradius 37.2088
lwrist -0.207657
lhand -18.4948 21.4231
lfingers 7.12502
lthumb 7.79275 51.2595
rfemur -9.91452 6.31649 24.5561
rtibia 33.6647
rfoot -17.9384 -12.2418
rtoes 2.37674
lfemur -14.0398 -4.94335 -21.9587
ltibia 35.44
lfoot -16.9035 -0.294544
ltoes 1.68893
238
root 0.302799 17.2267 23.4822 -0.228437 1.53227 0.597637
lowerback 3.96167 0.284658 -1.04166
upperback -0.206027 0.374763 1.79651
thorax -2.45217 0.211624 2.41015
lowerneck -16.673 -4.18953 -11.0447
upperneck 18.2758 -4.4903 7.34456
head 8.89424 -2.11945 3.76786
rclavicle 6.27414e-015 -7.95139e-015
rhumerus -35.5731 -26.5743 -70.9361
rradius 25.4505
rwrist 12.7277
rhand -14.9776 9.27126
rfingers 7.12502
rthumb 11.1864 -20.4105
lclavicle 6.27414e-015 -7.95139e-015
lhumerus -31.8608 4.58728 85.1172
lradius 37.5766
lwrist -0.0420212
lhand -18.158 21.7719
lfingers 7.12502
lthumb 8.11789 51.596
rfemur -10.1316 6.27525 24.0781
rtibia 33.7486
rfoot -18.079 -12.1175
rtoes 2.98592
lfemur -14.1101 -4.96189 -22.391
ltibia 35.3101
lfoot -16.8822 -0.237241
ltoes 1.34791
239
root 0.304703 17.228 23.4966 -0.185185 1.54146 0.814002
lowerback 3.90984 0.239318 -1.22856
upperback -0.231831 0.304169 1.7281
thorax -2.44673 0.178525 2.44919
lowerneck -16.4633 -4.10903 -11.0637
upperneck 18.2116 -4.41555 7.43978
head 8.82912 -2.0793 3.81479
rclavicle 2.00027e-015 3.97569e-015
rhumerus -35.9486 -26.5784 -70.9144
rradius 25.3063
rwrist 12.9024
rhand -14.7327 9.20125
rfingers 7.12502
rthumb 11.4225 -20.4676
lclavicle 2.00027e-015 3.97569e-015
lhumerus -31.8733 4.40752 84.991
lradius 37.9441
lwrist 0.16256
lhand -18.0242 21.9358
lfingers 7.12502
lthumb 8.24699 51.7549
rfemur -10.1494 6.02563 23.7946
rtibia 33.8573
rfoot -18.2258 -11.9537
rtoes 2.70615
lfemur -13.9765 -4.98472 -22.6539
ltibia 35.1318
lfoot -16.857 -0.157245
ltoes 1.06259
240
root 0.308239 17.2261 23.5149 -0.212119 1.45256 0.808663
lowerback 3.80239 0.209616 -1.21117
upperback -0.131246 0.265555 1.75299
thorax -2.28094 0.156663 2.46732
lowerneck -16.6181 -4.11006 -11.154
upperneck 18.3102 -4.39566 7.51114
head 8.89261 -2.06697 3.85795
rclavicle 8.23714e-015 -7.95139e-016
rhumerus -36.1127 -26.488 -71.0009
rradius 25.1892
rwrist 13.0557
rhand -14.5973 9.23599
rfingers 7.12502
rthumb 11.5531 -20.4256
lclavicle 8.23714e-015 -7.95139e-016
lhumerus -31.7494 4.43964 84.8993
lradius 38.3359
lwrist 0.178375
lhand -17.961 21.7389
lfingers 7.12502
lthumb 8.30794 51.5556
rfemur -10.0478 5.85248 23.7639
rtibia 33.8856
rfoot -18.3382 -11.7329
rtoes 2.52755
lfemur -13.8054 -4.93275 -22.6728
ltibia 35.0287
lfoot -16.8924 -0.13578
ltoes 1.49339
241
root 0.307062 17.2277 23.5328 -0.0855516 1.33776 0.988195
lowerback 3.60581 0.204373 -1.43837
upperback -0.0740297 0.248334 1.71177
thorax -2.11172 0.14809 2.5538
lowerneck -16.8928 -4.10218 -10.9572
upperneck 18.4477 -4.35879 7.27253
head 8.97557 -2.05681 3.74694
rclavicle 2.5345e-015 -3.18055e-015
rhumerus -36.1679 -26.4064 -71.2108
rradius 25.0754
rwrist 13.0015
rhand -14.5119 9.21706
rfingers 7.12502
rthumb 11.6355 -20.4399
lclavicle 2.5345e-015 -3.18055e-015
lhumerus -31.5093 4.50335 84.7527
lradius 38.4807
lwrist 0.0117942
lhand -17.6672 21.7621
lfingers 7.12502
lthumb 8.59149 51.5673
rfemur -10.1151 5.83888 23.5538
rtibia 33.8337
rfoot -18.3224 -11.6708
rtoes 2.03776
lfemur -13.8402 -4.82797 -22.8624
ltibia 35.0317
lfoot -17.02 -0.0949313
ltoes 1.5754
242
root 0.299684 17.2312 23.5368 0.120263 1.16964 0.777967
lowerback 3.59638 0.197804 -1.36002
upperback -0.185887 0.246024 1.81265
thorax -2.22149 0.148881 2.61401
lowerneck -16.8586 -4.01316 -10.87
upperneck 18.5067 -4.23718 7.1484
head 8.97254 -2.00799 3.70642
rclavicle 2.13694e-015 1.27222e-014
rhumerus -36.4269 -26.0472 -71.4277
rradius 25.2671
rwrist 12.6653
rhand -14.2509 9.06504
rfingers 7.12502
rthumb 11.8871 -20.5775
lclavicle 2.13694e-015 1.27222e-014
lhumerus -31.5105 4.35061 84.6729
lradius 38.6814
lwrist 0.24776
lhand -17.7216 22.054
lfingers 7.12502
lthumb 8.53901 51.8614
rfemur -10.302 6.15785 23.8264
rtibia 33.7205
rfoot -18.2099 -11.793
rtoes 2.00609
lfemur -14.1279 -4.77658 -22.5592
ltibia 35.1318
lfoot -17.1186 -0.0546526
ltoes 1.73948
243
root 0.292932 17.2302 23.5328 0.230739 0.960335 0.38526
lowerback 3.70758 0.186603 -1.08868
upperback -0.220464 0.246932 1.98846
thorax -2.31919 0.148474 2.6426
lowerneck -16.8426 -3.9489 -10.9104
upperneck 18.4725 -4.12823 7.10685
head 8.9472 -1.9641 3.71262
rclavicle -9.7156e-015 1.43125e-014
rhumerus -36.6626 -25.9925 -71.4667
rradius 25.3968
rwrist 12.8489
rhand -13.9389 9.26091
rfingers 7.12502
rthumb 12.188 -20.364
lclavicle -9.7156e-015 1.43125e-014
lhumerus -31.4525 4.49296 84.5739
lradius 38.9331
lwrist 0.291283
lhand -17.928 21.8436
lfingers 7.12502
lthumb 8.33986 51.6589
rfemur -10.4224 6.55206 24.3047
rtibia 33.6258
rfoot -18.0726 -11.8983
rtoes 2.33307
lfemur -14.3315 -4.76979 -22.0659
ltibia 35.2442
lfoot -17.1022 0.025484
ltoes 2.22617
244
root 0.289777 17.2316 23.5334 0.393237 0.862307 0.20366
lowerback 3.67506 0.172427 -0.928803
upperback -0.222114 0.237074 2.07252
thorax -2.30181 0.14196 2.63984
lowerneck -16.8549 -3.95936 -10.9888
upperneck 18.4192 -4.106 7.05186
head 8.92995 -1.96416 3.70831
rclavicle -2.48481e-016 3.49861e-014
rhumerus -36.7671 -25.9775 -71.5369
rradius 25.4924
rwrist 12.7612
rhand -13.5127 9.24698
rfingers 7.12502
rthumb 12.5989 -20.3531
lclavicle -2.48481e-016 3.49861e-014
lhumerus -31.441 4.45005 84.4981
lradius 39.351
lwrist 0.396475
lhand -17.9945 21.6757
lfingers 7.12502
lthumb 8.2756 51.4936
rfemur -10.5383 6.69342 24.5197
rtibia 33.5221
rfoot -18.0432 -11.9097
rtoes 2.54226
lfemur -14.5628 -4.75766 -21.8271
ltibia 35.3685
lfoot -17.1648 0.125779
ltoes 1.95563
245
root 0.285089 17.2343 23.537 0.528974 0.747911 0.244536
lowerback 3.66782 0.151062 -1.02153
upperback -0.25498 0.205199 2.08644
thorax -2.3303 0.127827 2.70836
lowerneck -16.8882 -3.90444 -11.0678
upperneck 18.4337 -4.01498 7.09513
head 8.93448 -1.92216 3.7487
rclavicle 1.4064e-014 7.95139e-015
rhumerus -36.8719 -25.9031 -71.6748
rradius 25.6572
rwrist 12.5823
rhand -13.1739 9.20324
rfingers 7.12502
rthumb 12.9255 -20.3764
lclavicle 1.4064e-014 7.95139e-015
lhumerus -31.5866 4.39107 84.3907
lradius 39.7285
lwrist 0.549389
lhand -18.3375 21.56
lfingers 7.12502
lthumb 7.94463 51.3907
rfemur -10.6393 6.83632 24.4858
rtibia 33.4657
rfoot -18.0195 -11.9202
rtoes 2.58978
lfemur -14.7226 -4.6976 -21.8457
ltibia 35.4381
lfoot -17.2096 0.215541
ltoes 1.55834
246
root 0.283174 17.2359 23.5423 0.618434 0.573637 0.281933
lowerback 3.66952 0.117614 -1.09985
upperback -0.268664 0.157325 2.08975
thorax -2.34298 0.105162 2.7587
lowerneck -17.0661 -3.82236 -11.0763
upperneck 18.6081 -3.89756 7.15064
head 9.01576 -1.86093 3.7873
rclavicle 1.2921e-014 -3.18055e-015
rhumerus -37.0411 -25.3495 -72.0673
rradius 26.1236
rwrist 12.1849
rhand -12.8295 8.56061
rfingers 7.12502
rthumb 13.2576 -20.9978
lclavicle 1.2921e-014 -3.18055e-015
lhumerus -31.6165 4.37934 84.2337
lradius 39.9139
lwrist 0.849887
lhand -18.2781 22.1511
lfingers 7.12502
lthumb 8.00192 51.9796
rfemur -10.7317 6.97373 24.4424
rtibia 33.4594
rfoot -18.0174 -11.9161
rtoes 2.18112
lfemur -14.7999 -4.64559 -21.8786
ltibia 35.442
lfoot -17.2084 0.298692
ltoes 1.93204
247
root 0.282091 17.2378 23.5474 0.79879 0.378871 0.249593
lowerback 3.62098 0.123865 -1.07177
upperback -0.308425 0.167552 2.09655
thorax -2.35714 0.110456 2.74935
lowerneck -17.2139 -3.78225 -10.9149
upperneck 18.7439 -3.83477 6.97549
head 9.07604 -1.83761 3.70894
rclavicle -8.32411e-015 -1.43125e-014
rhumerus -37.2203 -24.8332 -72.4499
rradius 26.5899
rwrist 11.6028
rhand -12.8611 8.18568
rfingers 7.12502
rthumb 13.2271 -21.3747
lclavicle -8.32411e-015 -1.43125e-014
lhumerus -31.5836 4.35121 84.057
lradius 40.0575
lwrist 1.01419
lhand -17.7831 23.3248
lfingers 7.12502
lthumb 8.47963 53.1345
rfemur -10.9516 7.0225 24.4427
rtibia 33.4766
rfoot -17.9741 -11.7607
rtoes 2.44464
lfemur -14.9357 -4.6955 -21.8278
ltibia 35.3982
lfoot -17.1777 0.482901
ltoes 2.53838
